<?xml version="1.0" encoding="utf-8"?>
<!-- Generator: Adobe Illustrator 25.4.1, SVG Export Plug-In . SVG Version: 6.00 Build 0)  -->
<svg version="1.1" xmlns="http://www.w3.org/2000/svg" xmlns:xlink="http://www.w3.org/1999/xlink" x="0px" y="0px"
	 viewBox="0 0 1920 1080" style="enable-background:new 0 0 1920 1080;" xml:space="preserve">
<style type="text/css">
	.st0{display:none;}
	.st1{display:inline;fill:#CC9E7F;}
	.st2{display:inline;}
	.st3{fill:#AA7143;}
	.st4{fill:#AA6231;}
	.st5{fill:#CE851B;}
	.st6{fill:#BC7442;}
</style>
<g id="Calque_1">
	<g class="st0">
		<path class="st1" d="M959.8,977.7c-59.1,0-116.4-11.6-170.3-34.4c-52.1-22-98.9-53.6-139.1-93.8c-40.2-40.2-71.7-87-93.8-139.1
			c-22.8-53.9-34.4-111.2-34.4-170.3c0-59.1,11.6-116.4,34.4-170.3c22-52.1,53.6-98.9,93.8-139.1c40.2-40.2,87-71.7,139.1-93.8
			c53.9-22.8,111.2-34.4,170.3-34.4c59.1,0,116.4,11.6,170.3,34.4c52.1,22,98.9,53.6,139.1,93.8c40.2,40.2,71.7,87,93.8,139.1
			c22.8,53.9,34.4,111.2,34.4,170.3c0,59.1-11.6,116.4-34.4,170.3c-22,52.1-53.6,98.9-93.8,139.1c-40.2,40.2-87,71.7-139.1,93.8
			C1076.2,966.1,1018.9,977.7,959.8,977.7z"/>
		<path class="st2" d="M959.8,103.2c59,0,116.2,11.6,170.1,34.3c52,22,98.8,53.5,138.9,93.7s71.6,86.9,93.7,138.9
			c22.8,53.9,34.3,111.1,34.3,170.1s-11.6,116.2-34.3,170.1c-22,52-53.5,98.8-93.7,138.9s-86.9,71.6-138.9,93.7
			c-53.9,22.8-111.1,34.3-170.1,34.3c-59,0-116.2-11.6-170.1-34.3c-52-22-98.8-53.5-138.9-93.7s-71.6-86.9-93.7-138.9
			c-22.8-53.9-34.3-111.1-34.3-170.1c0-59,11.6-116.2,34.3-170.1c22-52,53.5-98.8,93.7-138.9s86.9-71.6,138.9-93.7
			C843.6,114.7,900.8,103.2,959.8,103.2 M959.8,102.2c-241.9,0-438,196.1-438,438s196.1,438,438,438s438-196.1,438-438
			S1201.7,102.2,959.8,102.2L959.8,102.2z"/>
	</g>
	<g>
		<path class="st3" d="M0,0v1080h1920V0H0z M960,978c-241.9,0-438-196.1-438-438s196.1-438,438-438s438,196.1,438,438
			S1201.9,978,960,978z"/>
	</g>
	<g>
		<path class="st4" d="M959.8,1059.7c-70.1,0-138.2-13.7-202.2-40.8c-61.9-26.2-117.4-63.6-165.1-111.3
			c-47.7-47.7-85.2-103.3-111.3-165.1c-27.1-64-40.8-132.1-40.8-202.2S454.1,402,481.2,338c26.2-61.9,63.6-117.4,111.3-165.1
			c47.7-47.7,103.3-85.2,165.1-111.3c64-27.1,132.1-40.8,202.2-40.8S1098,34.4,1162,61.5c61.9,26.2,117.4,63.6,165.1,111.3
			c47.7,47.7,85.2,103.3,111.3,165.1c27.1,64,40.8,132.1,40.8,202.2s-13.7,138.2-40.8,202.2c-26.2,61.9-63.6,117.4-111.3,165.1
			c-47.7,47.7-103.3,85.2-165.1,111.3C1098,1045.9,1030,1059.7,959.8,1059.7z M959.8,97.2c-244.3,0-443,198.7-443,443
			s198.7,443,443,443s443-198.7,443-443S1204.1,97.2,959.8,97.2z"/>
		<path class="st5" d="M959.8,25.7c69.5,0,136.8,13.6,200.3,40.4c61.3,25.9,116.3,63,163.5,110.3c47.3,47.3,84.4,102.3,110.3,163.5
			c26.8,63.4,40.4,130.8,40.4,200.3s-13.6,136.8-40.4,200.3c-25.9,61.3-63,116.3-110.3,163.5c-47.3,47.3-102.3,84.4-163.5,110.3
			c-63.4,26.8-130.8,40.4-200.3,40.4c-69.5,0-136.8-13.6-200.3-40.4c-61.3-25.9-116.3-63-163.5-110.3
			c-47.3-47.3-84.4-102.3-110.3-163.5c-26.8-63.4-40.4-130.8-40.4-200.3s13.6-136.8,40.4-200.3c25.9-61.3,63-116.3,110.3-163.5
			C643.3,129.1,698.3,92,759.6,66.1C823,39.3,890.4,25.7,959.8,25.7 M959.8,988.2c247,0,448-201,448-448s-201-448-448-448
			s-448,201-448,448S712.8,988.2,959.8,988.2 M959.8,15.7c-289.7,0-524.5,234.8-524.5,524.5s234.8,524.5,524.5,524.5
			c289.7,0,524.5-234.8,524.5-524.5S1249.5,15.7,959.8,15.7L959.8,15.7z M959.8,978.2c-241.9,0-438-196.1-438-438s196.1-438,438-438
			c241.9,0,438,196.1,438,438S1201.7,978.2,959.8,978.2L959.8,978.2z"/>
	</g>
</g>
<g id="Calque_2">
	<g>
		<circle class="st6" cx="1444" cy="540" r="20"/>
	</g>
	<g>
		<circle class="st6" cx="960" cy="1019" r="20"/>
	</g>
	<g>
		<circle class="st6" cx="481" cy="540" r="20"/>
	</g>
	<g>
		<circle class="st6" cx="960" cy="60" r="20"/>
	</g>
	<g>
		<circle class="st6" cx="1328" cy="235" r="20"/>
	</g>
	<g>
		<circle class="st6" cx="587" cy="235" r="20"/>
	</g>
	<g>
		<circle class="st6" cx="1331" cy="841.5" r="20"/>
	</g>
	<g>
		<circle class="st6" cx="590" cy="841.5" r="20"/>
	</g>
</g>
</svg>
