<?xml version="1.0" encoding="utf-8"?>
<!-- Generator: Adobe Illustrator 25.4.1, SVG Export Plug-In . SVG Version: 6.00 Build 0)  -->
<svg version="1.1" id="Layer_1" xmlns="http://www.w3.org/2000/svg" xmlns:xlink="http://www.w3.org/1999/xlink" x="0px" y="0px"
	 viewBox="0 0 864 864" style="enable-background:new 0 0 864 864;" xml:space="preserve">
<style type="text/css">
	.st0{fill:#003073;}
</style>
<path class="st0" d="M815.2,485.4c-8.7-7.5-15.1-17.5-22.5-26.3c-4.7-5.6-9.2-11.2-13.4-17c-3.4-4.7-6.7-9.8-9-15.2
	c-10.6-25-7.4-33.5,0.1-58.6c10.5-35.2,28.6-67.8,36.4-103.9l3.5-16.2l-14.7,7.9c-58,31.5-98.1,79.7-124,139.7
	c-30-2.6-59.9-9.3-89.2-16.4c0.2-0.9,0.4-1.9,0.6-2.7c0.7-3,1.3-5.8,1.3-8.9v-11l-10.3,3.8c-7.8,2.9-15.5,6.5-22.5,11.1
	c-8.4-2.1-16.8-4.2-25.2-6.3c-38.4-9.4-77.7-18-117.3-19.8c-10.7-27.5-13.4-60.5-4.6-88.8l6.9-22.3l-18.8,13.9
	c-37.6,27.9-69.3,61.7-92,102.8c-83.8,11.8-165.7,33.7-244.5,64.6c-7.6,3-18.3,7.5-19.9,16.6c-0.9,5.2,1.5,9.8,5.3,13.2
	c8.3,7.6,18.8,13.7,29.1,17.9c4,1.6,8.1,3.3,12.5,3.5c3.7,0.2,7.4-0.6,11.1-1c0.6-0.1,1.2-0.1,1.8-0.2c-1,0.5-2,1.1-3,1.7l-11.9,7.4
	l12.7,6c26.3,12.5,54.2,21.3,82.9,26.8c28.9,5.5,58.3,7.7,87.7,7.3c11.5,37.7,36.7,83.2,69,106l11.8,8.3l0.3-14.4
	c0.2-12.2-0.6-24.4-1.5-36.6c-1.3-17.8-2.8-36.2,0.1-53.9c0.4-2.8,1-5.5,1.7-8.2c43.5,1.4,87-1.4,129.9-9.1
	c9,7.7,18.3,13.4,29.3,17.8c5.7,2.2,11.5,4,17.4,5.6c6.6,1.8,13.2,3.4,19.8,5.3l27.8,7.6L549.3,523c-8.3-8.3-2.7-24.8,1.4-34.6
	c11-3.5,22-7.3,32.8-11.4c6.5,2.1,13.4,3.1,20.3,2.6l0.9-0.1l40.4-13.5l-20.9-5.3c8.1-3.4,16.1-6.9,24.2-10.3
	c10.8-4.6,21.5-9.1,32.4-13.2c37.3,39.9,84.1,66.6,137.5,78.5l9.6,2.1C828,518,828,496.4,815.2,485.4z"/>
</svg>
